<svg width="25" height="25" viewBox="0 0 25 25" fill="none" xmlns="http://www.w3.org/2000/svg">
<path d="M3.5 11.5C3.5 7.75027 3.5 5.8754 4.45491 4.56107C4.76331 4.1366 5.1366 3.76331 5.56107 3.45491C6.8754 2.5 8.75027 2.5 12.5 2.5C16.2497 2.5 18.1246 2.5 19.4389 3.45491C19.8634 3.76331 20.2367 4.1366 20.5451 4.56107C21.5 5.8754 21.5 7.75027 21.5 11.5V13.5C21.5 17.2497 21.5 19.1246 20.5451 20.4389C20.2367 20.8634 19.8634 21.2367 19.4389 21.5451C18.1246 22.5 16.2497 22.5 12.5 22.5C8.75027 22.5 6.8754 22.5 5.56107 21.5451C5.1366 21.2367 4.76331 20.8634 4.45491 20.4389C3.5 19.1246 3.5 17.2497 3.5 13.5V11.5Z" stroke="#FCFF7A" stroke-width="1.5" stroke-linecap="round" stroke-linejoin="round"/>
<path d="M17.5 10H9.5M17.5 15H14.5" stroke="#FCFF7A" stroke-width="1.5" stroke-linecap="round" stroke-linejoin="round"/>
</svg>
